<svg xmlns="http://www.w3.org/2000/svg" viewBox="0 0 112.12 112.12">
  <defs>
    <style>.cls-1{fill:#ec1c24;}.cls-2{fill:#fff;}</style>
  </defs>
  <g id="Layer_2" data-name="Layer 2">
    <g id="Layer_1-2" data-name="Layer 1">
      <circle class="cls-1" cx="56.06" cy="56.06" r="56.06"/>
      <path class="cls-2" d="M77.43,41.62l-4.5,4.47a20,20,0,0,1,6.46,17.63C77.49,76.24,64.93,84.79,51.24,83h0C40.68,81.6,33.17,75.06,29.8,71.83l-4.48,4.46c.5.48,1.32,1.28,2.44,2.25A42.43,42.43,0,0,0,49.7,89.19a33,33,0,0,0,23.24-5A28.4,28.4,0,0,0,85.66,64.67,26.31,26.31,0,0,0,77.43,41.62Z"/>
      <path class="cls-2" d="M63.89,45.25l-4.08,3.91C67,51.92,69.79,56.61,69,62c-1,6.94-8.54,11.58-16.7,10.34a24.29,24.29,0,0,1-9.64-3.68l-4.57,4.54a30.29,30.29,0,0,0,13.26,5.41C62.92,80.41,73.65,73.39,75.23,63,76.38,55.43,71.49,48.18,63.89,45.25Z"/>
      <path class="cls-2" d="M34.69,70.5,39.19,66A20,20,0,0,1,32.73,48.4c1.9-12.52,14.46-21.07,28.15-19.28v0C71.44,30.52,79,37.06,82.32,40.29l4.48-4.45c-.5-.49-1.32-1.29-2.44-2.26A42.39,42.39,0,0,0,62.42,22.93a33,33,0,0,0-23.24,5A28.43,28.43,0,0,0,26.46,47.45,26.31,26.31,0,0,0,34.69,70.5Z"/>
      <path class="cls-2" d="M48.24,66.88,52.31,63c-7.15-2.76-10-7.45-9.15-12.88,1.05-6.94,8.55-11.58,16.7-10.34a24.29,24.29,0,0,1,9.64,3.68l4.57-4.54a30.29,30.29,0,0,0-13.26-5.41C49.2,31.71,38.47,38.73,36.89,49.13,35.74,56.69,40.63,63.94,48.24,66.88Z"/>
    </g>
  </g>
</svg>
