<svg xmlns="http://www.w3.org/2000/svg" xmlns:xlink="http://www.w3.org/1999/xlink" viewBox="0 0 82.69 180.44"><defs><style>.cls-1{isolation:isolate;}.cls-2{fill:url(#linear-gradient);}.cls-11,.cls-19,.cls-22,.cls-25,.cls-3{mix-blend-mode:color-dodge;}.cls-3{fill:url(#radial-gradient);}.cls-4{mix-blend-mode:screen;opacity:0.6;fill:url(#radial-gradient-2);}.cls-5{fill:url(#linear-gradient-2);}.cls-6{fill:url(#linear-gradient-3);}.cls-7{fill:url(#linear-gradient-4);}.cls-8{fill:url(#linear-gradient-5);}.cls-9{fill:url(#linear-gradient-6);}.cls-10{fill:url(#linear-gradient-7);}.cls-11{fill:url(#radial-gradient-3);}.cls-12{fill:#bcbec0;}.cls-12,.cls-24{mix-blend-mode:multiply;}.cls-13{opacity:0.8;}.cls-14{fill:url(#linear-gradient-8);}.cls-15{fill:#6b24d6;}.cls-16{fill:#f49587;}.cls-17{fill:url(#New_Gradient_Swatch_copy_13);}.cls-18{fill:#bb8cff;}.cls-19{fill:url(#Radial_Gradient_1);}.cls-20{fill:url(#New_Gradient_Swatch_copy_18);}.cls-21{fill:url(#New_Gradient_Swatch_copy_9);}.cls-22{fill:url(#Radial_Gradient_1-2);}.cls-23{fill:url(#New_Gradient_Swatch_copy_10);}.cls-24{fill:#d1d3d4;}.cls-25{fill:url(#radial-gradient-4);}</style><linearGradient id="linear-gradient" x1="262" y1="86.45" x2="322.8" y2="191.78" gradientTransform="matrix(-1, 0, 0, 1, 630.69, 0)" gradientUnits="userSpaceOnUse"><stop offset="0.06" stop-color="#200041"/><stop offset="0.26" stop-color="#210243"/><stop offset="0.36" stop-color="#25084b"/><stop offset="0.43" stop-color="#2c1358"/><stop offset="0.47" stop-color="#311b61"/><stop offset="0.48" stop-color="#351f65"/><stop offset="0.5" stop-color="#422c73"/><stop offset="0.51" stop-color="#584188"/><stop offset="0.52" stop-color="#765fa7"/><stop offset="0.53" stop-color="#8770b8"/><stop offset="0.54" stop-color="#7e67ae"/><stop offset="0.56" stop-color="#5c468d"/><stop offset="0.59" stop-color="#442e75"/><stop offset="0.61" stop-color="#362066"/><stop offset="0.63" stop-color="#311b61"/><stop offset="0.67" stop-color="#2a1155"/><stop offset="0.75" stop-color="#230446"/><stop offset="0.81" stop-color="#200041"/><stop offset="1" stop-color="#200041"/></linearGradient><radialGradient id="radial-gradient" cx="356.49" cy="129.24" r="114.11" gradientTransform="matrix(-1, 0, 0, 1, 630.69, 0)" gradientUnits="userSpaceOnUse"><stop offset="0" stop-color="#711f56"/><stop offset="0.16" stop-color="#6c1e52"/><stop offset="0.36" stop-color="#5c1946"/><stop offset="0.58" stop-color="#431233"/><stop offset="0.82" stop-color="#200918"/><stop offset="1"/></radialGradient><radialGradient id="radial-gradient-2" cx="337.4" cy="121.09" r="67.23" gradientTransform="matrix(-1, 0, 0, 1, 630.69, 0)" gradientUnits="userSpaceOnUse"><stop offset="0" stop-color="#af8afc"/><stop offset="1" stop-color="#10054d"/></radialGradient><linearGradient id="linear-gradient-2" x1="342.82" y1="183.58" x2="156.98" y2="125.4" gradientTransform="matrix(-1, 0, 0, 1, 630.69, 0)" gradientUnits="userSpaceOnUse"><stop offset="0.19" stop-color="#3d065f"/><stop offset="0.93" stop-color="#3d065f"/></linearGradient><linearGradient id="linear-gradient-3" x1="345.25" y1="255.51" x2="250.87" y2="56.08" gradientTransform="matrix(-1, 0, 0, 1, 630.69, 0)" gradientUnits="userSpaceOnUse"><stop offset="0" stop-color="#311b61"/><stop offset="0.2" stop-color="#290f52"/><stop offset="0.49" stop-color="#200041"/><stop offset="1" stop-color="#0f001f"/></linearGradient><linearGradient id="linear-gradient-4" x1="276.07" y1="171.96" x2="335.34" y2="171.96" xlink:href="#linear-gradient-3"/><linearGradient id="linear-gradient-5" x1="330.73" y1="253.58" x2="281.45" y2="92.83" gradientTransform="matrix(-1, 0, 0, 1, 630.69, 0)" gradientUnits="userSpaceOnUse"><stop offset="0" stop-color="#a56ef4"/><stop offset="0.21" stop-color="#a186d3"/><stop offset="0.41" stop-color="#9e98bc"/><stop offset="0.53" stop-color="#9d9eb3"/><stop offset="0.62" stop-color="#a4a4b8"/><stop offset="0.75" stop-color="#b7b7c7"/><stop offset="0.9" stop-color="#d6d4df"/><stop offset="1" stop-color="#eeebf2"/></linearGradient><linearGradient id="linear-gradient-6" x1="-195.23" y1="10650.5" x2="-184.62" y2="10650.5" gradientTransform="matrix(0.5, 1.44, 0.87, 0.5, -8838.87, -4898.55)" xlink:href="#linear-gradient-3"/><linearGradient id="linear-gradient-7" x1="343.92" y1="152.68" x2="336.61" y2="152.37" gradientTransform="matrix(-1, 0, 0, 1, 630.69, 0)" gradientUnits="userSpaceOnUse"><stop offset="0" stop-color="#3d065f"/><stop offset="1" stop-color="#5f27bd"/></linearGradient><radialGradient id="radial-gradient-3" cx="340.25" cy="149.56" r="4.29" xlink:href="#radial-gradient"/><linearGradient id="linear-gradient-8" x1="277.68" y1="263.97" x2="306.7" y2="185.21" gradientTransform="matrix(-1, 0, 0, 1, 342.94, -80.76)" gradientUnits="userSpaceOnUse"><stop offset="0" stop-color="#112a6c"/><stop offset="0.14" stop-color="#114280"/><stop offset="0.43" stop-color="#1380b4"/><stop offset="0.48" stop-color="#138bbd"/><stop offset="0.71" stop-color="#169ac7"/><stop offset="1" stop-color="#1cb5d7"/></linearGradient><linearGradient id="New_Gradient_Swatch_copy_13" x1="259.12" y1="179.91" x2="304.19" y2="129.41" gradientTransform="matrix(-1, 0, 0, 1, 630.69, 0)" gradientUnits="userSpaceOnUse"><stop offset="0.04" stop-color="#6b24d6"/><stop offset="0.29" stop-color="#7733dc"/><stop offset="0.79" stop-color="#975ced"/><stop offset="1" stop-color="#a56ef4"/></linearGradient><radialGradient id="Radial_Gradient_1" cx="256.43" cy="169.29" r="30.77" gradientTransform="matrix(-1, 0, 0, 1, 630.69, 0)" gradientUnits="userSpaceOnUse"><stop offset="0" stop-color="#fff"/><stop offset="1"/></radialGradient><linearGradient id="New_Gradient_Swatch_copy_18" x1="312.56" y1="155.76" x2="297.13" y2="120.71" gradientTransform="matrix(-1, 0, 0, 1, 630.69, 0)" gradientUnits="userSpaceOnUse"><stop offset="0.04" stop-color="#9f19ab"/><stop offset="0.16" stop-color="#ae25b1"/><stop offset="0.41" stop-color="#d744bf"/><stop offset="0.63" stop-color="#ff63ce"/><stop offset="0.87" stop-color="#dc48c1"/></linearGradient><linearGradient id="New_Gradient_Swatch_copy_9" x1="285.43" y1="152.07" x2="315.42" y2="127.64" gradientTransform="matrix(-1, 0, 0, 1, 630.69, 0)" gradientUnits="userSpaceOnUse"><stop offset="0.04" stop-color="#9f19ab"/><stop offset="0.24" stop-color="#ae25b1"/><stop offset="0.65" stop-color="#d744bf"/><stop offset="1" stop-color="#ff63ce"/></linearGradient><radialGradient id="Radial_Gradient_1-2" cx="307.79" cy="134.94" r="15.09" xlink:href="#Radial_Gradient_1"/><linearGradient id="New_Gradient_Swatch_copy_10" x1="-268.98" y1="2339.29" x2="-275.89" y2="2334.07" gradientTransform="matrix(-0.87, -0.5, -1, 0.58, 2420.99, -1361.14)" gradientUnits="userSpaceOnUse"><stop offset="0.04" stop-color="#9d9eb3"/><stop offset="0.58" stop-color="#d4d1d8"/><stop offset="1" stop-color="#eeebf2"/></linearGradient><radialGradient id="radial-gradient-4" cx="27.01" cy="-5606.77" r="37.63" gradientTransform="matrix(0, -0.33, -0.42, 0, -2019.42, 143.22)" gradientUnits="userSpaceOnUse"><stop offset="0" stop-color="#ba348e"/><stop offset="0.13" stop-color="#8a276a"/><stop offset="0.27" stop-color="#601b4a"/><stop offset="0.41" stop-color="#3e112f"/><stop offset="0.55" stop-color="#230a1a"/><stop offset="0.7" stop-color="#0f040c"/><stop offset="0.85" stop-color="#040103"/><stop offset="1"/></radialGradient></defs><g class="cls-1"><g id="Layer_1" data-name="Layer 1"><path class="cls-2" d="M297.27,258l46.55-26.87c5.25-3,9.51-11.17,9.51-18.17V89c0-3.56,2.92-4.35,1.15-5.63-.07,0-4.16-1.91-4.23-1.94a6.88,6.88,0,0,0-6.43.38l-46.55,26.88c-5.25,3-9.51,11.16-9.51,18.16v124c0,3.72,1.2,6.38,3.12,7.59.11.07,5,2.41,5.16,2.46C297.74,261.38,295,259.29,297.27,258Z" transform="translate(-287.76 -80.76)"/><path class="cls-3" d="M297.7,108.78,344.25,81.9c2.48-1.43-44,27.74-44,27.74-5.25,3-9.51,11.16-9.51,18.16,0,0-2.57,126.84-2.57,123.12v-124C288.19,119.94,292.45,111.81,297.7,108.78Z" transform="translate(-287.76 -80.76)"/><path class="cls-4" d="M300.88,259.62l46.55-26.88c5.26-3,9.51-11.17,9.51-18.17V90.6c0-7-4.25-10.22-9.51-7.19l-46.55,26.88c-5.25,3-9.5,11.16-9.5,18.16v124C291.38,259.43,295.63,262.65,300.88,259.62Z" transform="translate(-287.76 -80.76)"/><path class="cls-5" d="M301.71,260.06l46.55-26.87c5.25-3,9.51-11.17,9.51-18.17v-124c0-7-4.26-10.22-9.51-7.19l-46.55,26.88c-5.25,3-9.51,11.16-9.51,18.16v124C292.2,259.88,296.46,263.09,301.71,260.06Z" transform="translate(-287.76 -80.76)"/><path class="cls-6" d="M356.47,215.84V91.72c0-6.14-3.73-9-8.33-6.3l-46.3,26.73c-4.61,2.66-8.34,9.79-8.34,15.93V252.2c0,6.14,3.73,9,8.34,6.3l46.3-26.73C352.74,229.11,356.47,222,356.47,215.84Z" transform="translate(-287.76 -80.76)"/><path class="cls-7" d="M354.62,216.6V93.1c0-5.13-3.12-7.5-7-5.27L302.33,114c-3.85,2.23-7,8.2-7,13.33v123.5c0,5.14,3.13,7.5,7,5.27l45.32-26.16C351.5,227.71,354.62,221.74,354.62,216.6Z" transform="translate(-287.76 -80.76)"/><path class="cls-8" d="M347.12,89.19c3.63-2.09,6.58-.41,6.58,3.75V217.83a14.5,14.5,0,0,1-6.58,11.34l-44.27,25.56c-3.63,2.09-6.57.42-6.57-3.75V126.09a14.5,14.5,0,0,1,6.57-11.34Z" transform="translate(-287.76 -80.76)"/><path class="cls-9" d="M291,157.59v-8.37a3.5,3.5,0,0,0-1.45-2.78h0c-.8-.46-1.45,0-1.45,1.1v8.37a3.5,3.5,0,0,0,1.45,2.78h0C290.3,159.15,291,158.66,291,157.59Z" transform="translate(-287.76 -80.76)"/><path class="cls-10" d="M290.08,158.55c.41,0,.56-.52.56-1v-8.37a3.19,3.19,0,0,0-1.3-2.51.92.92,0,0,0-.42-.13c-.41,0-.56.52-.56,1v8.37a3.18,3.18,0,0,0,1.3,2.5A.84.84,0,0,0,290.08,158.55Z" transform="translate(-287.76 -80.76)"/><path class="cls-11" d="M290.21,157.8v-8.37a3.16,3.16,0,0,0-1.3-2.5.83.83,0,0,0-.37-.13.45.45,0,0,1,.38-.22.92.92,0,0,1,.42.13,3.19,3.19,0,0,1,1.3,2.51v8.37c0,.44-.15,1-.56,1H290A1.38,1.38,0,0,0,290.21,157.8Z" transform="translate(-287.76 -80.76)"/><path class="cls-12" d="M296.28,126.09V251c0,4.17,2.94,5.84,6.57,3.75l44.27-25.56a14.5,14.5,0,0,0,6.58-11.34V92.94c0-4.16-2.95-5.84-6.58-3.75l-44.27,25.56A14.5,14.5,0,0,0,296.28,126.09Zm.57,0a13.87,13.87,0,0,1,6.29-10.84l44.27-25.56a5.46,5.46,0,0,1,2.66-.83c1.88,0,3.05,1.57,3.05,4.08V217.83a13.85,13.85,0,0,1-6.29,10.84l-44.26,25.56a5.52,5.52,0,0,1-2.67.83h0a2.69,2.69,0,0,1-2.17-1,4.83,4.83,0,0,1-.88-3.07Z" transform="translate(-287.76 -80.76)"/><g class="cls-13"><polygon class="cls-14" points="26.93 162.66 42.82 141.27 52.68 120.44 56.1 103.88 65.94 90.96 65.94 115.14 61.82 119 55.54 131.19 56.33 136.02 53.79 139.86 51.88 138.77 37.51 161.03 25.06 168.22 26.93 162.66"/><path class="cls-15" d="M303.63,151.86l-7.35,4.24v1.6l7.35-4.25V185l-7.35,4.24v1.6l7.35-4.25v12.92l-7.35,4.24v1.6l7.35-4.24V221.5l-7.35,4.21V227l.11.2,7.24-4.15v29.57H305V222.3l7.29-4.17,23,17.84,1.29-.74L323,224.69l14.4-24.59,16.27,7.25v-1.51l-15.74-7V178.08L353.7,169v-1.6l-23.37,13.49L317.49,177l-3.71,2.14V147.59l29.83-17.22v15.82l10.09-5.84v-1.6l-8.71,5V129.57l8.71-5V123L345,128V107.11l8.71-5v-1.6l-39.84,23-4.28,11.11L305,137.24V113.51l-1.38.79V138l-7.35,4.24v1.6l7.35-4.25Zm32.95,46.36-17.31-7.71-5.49,3.16V180.75l3.88-2.24,12.84,3.88.26-.15,5.82-3.36ZM305,200.33l8.7-5h.07v0l5.57-3.21,16.81,7.48-14.23,24.3-9.52-7.37-7.4,4.24Zm0-14.51,7.39-4.27v12.92L305,198.73Zm0-33.17,7.39-4.26V180L305,184.22Zm0-13.82,5.68-3.28L315,124.44l28.63-16.53v20.86L305,151.06Z" transform="translate(-287.76 -80.76)"/><polygon class="cls-16" points="12.1 174.02 9.62 172.8 30.34 130.54 30.34 109.06 37.76 95.2 37.76 20.91 40.52 19.31 40.52 95.89 33.1 109.75 33.1 131.19 12.1 174.02"/></g><path class="cls-17" d="M329.56,155.35v5.27a4,4,0,0,0,2.52,3.71,12.12,12.12,0,0,0,10.89-1l14.52-9.56a4.58,4.58,0,0,0,.33-7.55v-15l4.83,2.89a15.23,15.23,0,0,1-.16,26.24l-14.31,8.32a18.67,18.67,0,0,1-19.68-.55,6.11,6.11,0,0,1-2.75-4.8l0-5.83Z" transform="translate(-287.76 -80.76)"/><path class="cls-18" d="M330,154.68v5.94a3.58,3.58,0,0,0,2.27,3.34,11.78,11.78,0,0,0,10.55-1l14.52-9.56a4.18,4.18,0,0,0,.53-6.71v-1a5,5,0,0,1-.12,8.35l-14.52,9.56a12.57,12.57,0,0,1-11.25,1,4.35,4.35,0,0,1-2.76-4.07V156l-3.06,1.74,0,5.58a5.78,5.78,0,0,0,2.57,4.5,18.18,18.18,0,0,0,19.27.53l14.32-8.32a14.85,14.85,0,0,0,.15-25.57l-4.63-2.77v-.91l5,3a15.64,15.64,0,0,1-.16,26.92l-14.32,8.32a19,19,0,0,1-20.09-.56,6.58,6.58,0,0,1-2.92-5.13l0-6.06Z" transform="translate(-287.76 -80.76)"/><path class="cls-19" d="M333.17,167.26l.21-.76a15.11,15.11,0,0,0,3,.55l-.07.78A16.69,16.69,0,0,1,333.17,167.26Zm6.26-.25a15.2,15.2,0,0,0,3-.63l.24.75a16.7,16.7,0,0,1-3.14.66ZM329,165.36a4.44,4.44,0,0,1-1.34-1.32l.65-.43a3.84,3.84,0,0,0,1.11,1.09c.38.24.78.47,1.18.68l-.36.7C329.77,165.86,329.35,165.62,329,165.36Zm16.26-.18,2.74-1.51.38.69-2.74,1.51Zm5.48-3,2.74-1.52.38.69-2.74,1.51Zm6.2-3.44.95-.53a11.45,11.45,0,0,0,1.64-1.1l.49.61a12.46,12.46,0,0,1-1.75,1.18l-1,.52Zm4.69-3.8a11.17,11.17,0,0,0,1.46-2.64l.73.28a11.84,11.84,0,0,1-1.56,2.83Zm2.15-5.57a9.59,9.59,0,0,0,.06-1.12,10.88,10.88,0,0,0-.16-1.89l.77-.13a12.55,12.55,0,0,1,.17,2.09,10.55,10.55,0,0,1-.06,1.13Zm-2.63-8.42.59-.51a12.31,12.31,0,0,1,1.75,2.71l-.71.33A11.63,11.63,0,0,0,361.1,140.94Z" transform="translate(-287.76 -80.76)"/><path class="cls-20" d="M325.28,121.74c3.16-1.82,6-1.88,8-.51l2.27,1.06-.28,1.46a10.2,10.2,0,0,1,.77,4.1c0,4.65-2.49,12-5.06,18.33l-2.69,14-3-1.48s-10.71-8.87-10.71-18.52C314.57,133.43,319.37,125.16,325.28,121.74Z" transform="translate(-287.76 -80.76)"/><path class="cls-21" d="M317.53,141.69c0,9.65,10.71,18.52,10.71,18.52S339,139,339,129.33c0-6.79-4.79-9.52-10.71-6.11S317.53,134.91,317.53,141.69Z" transform="translate(-287.76 -80.76)"/><path class="cls-22" d="M327.56,122.85c3.09-1.78,5.87-1.87,7.82-.6-1.89-.86-4.39-.61-7.14,1-5.91,3.42-10.71,11.69-10.71,18.47,0,8.27,7.86,16,10.11,18-.05.09-.08.16-.08.16s-10.71-8.87-10.71-18.52C316.85,134.54,321.65,126.27,327.56,122.85Z" transform="translate(-287.76 -80.76)"/><ellipse class="cls-23" cx="328.24" cy="135.51" rx="5.5" ry="3.17" transform="matrix(0.5, -0.86, 0.86, 0.5, -242.17, 269.73)"/><path class="cls-24" d="M327,139.43a8.59,8.59,0,0,0,3.9-6.72,3.05,3.05,0,0,0-.74-2.19c1.16.1,1.94,1.09,1.94,2.74a8.62,8.62,0,0,1-3.9,6.73c-1.3.75-2.45.68-3.16,0A3.38,3.38,0,0,0,327,139.43Z" transform="translate(-287.76 -80.76)"/><ellipse class="cls-25" cx="322.56" cy="134.04" rx="15.72" ry="12.59" transform="translate(-230.69 280.26) rotate(-63.09)"/></g></g></svg>